<svg xmlns="http://www.w3.org/2000/svg" width="967" height="390" fill="none" viewBox="0 0 967 390">
    <path fill="#27272A" d="M4.86 189.4c1.752 0 3.096.336 4.032 1.008.948.66 1.422 1.65 1.422 2.97 0 .72-.132 1.338-.396 1.854-.252.504-.624.918-1.116 1.242-.48.312-1.068.54-1.764.684-.696.144-1.482.216-2.358.216H3.294V202H1.548v-12.294c.492-.12 1.038-.198 1.638-.234.612-.048 1.17-.072 1.674-.072zm.144 1.53c-.744 0-1.314.018-1.71.054v4.896h1.314c.6 0 1.14-.036 1.62-.108.48-.084.882-.216 1.206-.396.336-.192.594-.45.774-.774.18-.324.27-.738.27-1.242 0-.48-.096-.876-.288-1.188-.18-.312-.432-.558-.756-.738-.312-.192-.678-.324-1.098-.396-.42-.072-.864-.108-1.332-.108zm10.843 1.512c.144 0 .306.012.486.036.192.012.378.036.558.072.18.024.342.054.486.09.156.024.27.048.342.072l-.288 1.458c-.132-.048-.354-.102-.666-.162-.3-.072-.69-.108-1.17-.108-.312 0-.624.036-.936.108-.3.06-.498.102-.594.126V202h-1.674v-8.964c.396-.144.888-.276 1.476-.396.588-.132 1.248-.198 1.98-.198zm11.75 4.878c0 .744-.109 1.416-.325 2.016-.215.6-.521 1.116-.917 1.548-.384.432-.846.768-1.387 1.008-.54.228-1.128.342-1.764.342-.636 0-1.224-.114-1.764-.342-.54-.24-1.008-.576-1.404-1.008-.384-.432-.684-.948-.9-1.548-.215-.6-.323-1.272-.323-2.016 0-.732.108-1.398.324-1.998.215-.612.515-1.134.9-1.566.396-.432.864-.762 1.404-.99.54-.24 1.128-.36 1.764-.36.636 0 1.224.12 1.764.36.54.228 1.002.558 1.386.99.395.432.701.954.918 1.566.215.6.323 1.266.323 1.998zm-1.747 0c0-1.056-.24-1.89-.72-2.502-.467-.624-1.11-.936-1.925-.936-.816 0-1.464.312-1.944.936-.468.612-.703 1.446-.703 2.502 0 1.056.235 1.896.703 2.52.48.612 1.128.918 1.944.918.816 0 1.458-.306 1.926-.918.48-.624.72-1.464.72-2.52zm5.776-4.266c.204-.132.51-.27.918-.414.42-.144.9-.216 1.44-.216.672 0 1.266.12 1.782.36.528.24.972.576 1.332 1.008.36.432.63.948.81 1.548.192.6.288 1.26.288 1.98 0 .756-.114 1.44-.342 2.052-.216.6-.528 1.11-.936 1.53-.408.42-.9.744-1.476.972-.576.228-1.224.342-1.944.342-.78 0-1.47-.054-2.07-.162-.6-.108-1.092-.216-1.476-.324v-13.41l1.674-.288v5.022zm0 7.488c.168.048.402.096.702.144.312.036.696.054 1.152.054.9 0 1.62-.294 2.16-.882.54-.6.81-1.446.81-2.538 0-.48-.048-.93-.144-1.35-.096-.42-.252-.78-.468-1.08-.216-.312-.498-.552-.846-.72-.336-.18-.744-.27-1.224-.27-.456 0-.876.078-1.26.234-.384.156-.678.318-.882.486v5.922zm11.733 1.638c-1.032-.024-1.764-.246-2.196-.666-.432-.42-.648-1.074-.648-1.962V188.32l1.674-.288v11.25c0 .276.024.504.072.684.048.18.126.324.234.432.108.108.252.192.432.252.18.048.402.09.666.126l-.234 1.404zm1.592-4.842c0-.828.12-1.548.36-2.16.24-.624.558-1.14.954-1.548.396-.408.852-.714 1.368-.918.516-.204 1.044-.306 1.584-.306 1.26 0 2.226.396 2.898 1.188.672.78 1.008 1.974 1.008 3.582v.288c0 .108-.006.21-.018.306h-6.408c.072.972.354 1.71.846 2.214s1.26.756 2.304.756c.588 0 1.08-.048 1.476-.144.408-.108.714-.21.918-.306l.234 1.404c-.204.108-.564.222-1.08.342-.504.12-1.08.18-1.728.18-.816 0-1.524-.12-2.124-.36-.588-.252-1.074-.594-1.458-1.026-.384-.432-.672-.942-.864-1.53-.18-.6-.27-1.254-.27-1.962zm6.426-.918c.012-.756-.18-1.374-.576-1.854-.384-.492-.918-.738-1.602-.738-.384 0-.726.078-1.026.234-.288.144-.534.336-.738.576-.204.24-.366.516-.486.828-.108.312-.18.63-.216.954h4.644zm4.15-3.51c.385-.096.889-.198 1.513-.306.636-.108 1.368-.162 2.196-.162.6 0 1.104.084 1.512.252.408.156.75.39 1.026.702.084-.06.216-.144.396-.252.18-.108.402-.21.666-.306.264-.108.558-.198.882-.27.324-.084.672-.126 1.044-.126.72 0 1.308.108 1.764.324.456.204.81.498 1.062.882.264.384.438.84.522 1.368.096.528.144 1.104.144 1.728V202H66.58v-4.896c0-.552-.03-1.026-.09-1.422-.048-.396-.15-.726-.306-.99-.144-.264-.348-.456-.612-.576-.252-.132-.582-.198-.99-.198-.564 0-1.032.078-1.404.234-.36.144-.606.276-.738.396.096.312.168.654.216 1.026.048.372.072.762.072 1.17V202h-1.674v-4.896c0-.552-.03-1.026-.09-1.422-.06-.396-.168-.726-.324-.99-.144-.264-.348-.456-.612-.576-.252-.132-.576-.198-.972-.198-.168 0-.348.006-.54.018-.192.012-.378.03-.558.054-.168.012-.324.03-.468.054-.144.024-.24.042-.288.054V202h-1.674v-9.09z"/>
    <path fill="#575456" d="M157.65 196.78c.192.24.432.558.72.954.3.384.606.816.918 1.296.312.468.618.96.918 1.476.312.516.576 1.014.792 1.494h-1.908c-.24-.456-.504-.918-.792-1.386-.276-.468-.558-.912-.846-1.332-.288-.432-.576-.834-.864-1.206-.276-.372-.528-.696-.756-.972-.156.012-.318.018-.486.018h-2.052V202h-1.746v-12.294c.492-.12 1.038-.198 1.638-.234.612-.048 1.17-.072 1.674-.072 1.752 0 3.084.33 3.996.99.924.66 1.386 1.644 1.386 2.952 0 .828-.222 1.536-.666 2.124-.432.588-1.074 1.026-1.926 1.314zm-2.646-5.85c-.744 0-1.314.018-1.71.054v4.698h1.242c.6 0 1.14-.03 1.62-.09.48-.06.882-.174 1.206-.342.336-.168.594-.402.774-.702.18-.312.27-.72.27-1.224 0-.468-.09-.858-.27-1.17-.18-.312-.426-.558-.738-.738-.3-.18-.66-.306-1.08-.378-.408-.072-.846-.108-1.314-.108zm7.234 6.408c0-.828.12-1.548.36-2.16.24-.624.558-1.14.954-1.548.396-.408.852-.714 1.368-.918.516-.204 1.044-.306 1.584-.306 1.26 0 2.226.396 2.898 1.188.672.78 1.008 1.974 1.008 3.582v.288c0 .108-.006.21-.018.306h-6.408c.072.972.354 1.71.846 2.214s1.26.756 2.304.756c.588 0 1.08-.048 1.476-.144.408-.108.714-.21.918-.306l.234 1.404c-.204.108-.564.222-1.08.342-.504.12-1.08.18-1.728.18-.816 0-1.524-.12-2.124-.36-.588-.252-1.074-.594-1.458-1.026-.384-.432-.672-.942-.864-1.53-.18-.6-.27-1.254-.27-1.962zm6.426-.918c.012-.756-.18-1.374-.576-1.854-.384-.492-.918-.738-1.602-.738-.384 0-.726.078-1.026.234-.288.144-.534.336-.738.576-.204.24-.366.516-.486.828-.108.312-.18.63-.216.954h4.644zm6.329 4.374c.684 0 1.188-.09 1.512-.27.336-.18.504-.468.504-.864 0-.408-.162-.732-.486-.972-.324-.24-.858-.51-1.602-.81-.36-.144-.708-.288-1.044-.432-.324-.156-.606-.336-.846-.54-.24-.204-.432-.45-.576-.738-.144-.288-.216-.642-.216-1.062 0-.828.306-1.482.918-1.962.612-.492 1.446-.738 2.502-.738.264 0 .528.018.792.054.264.024.51.06.738.108.228.036.426.078.594.126.18.048.318.09.414.126l-.306 1.44c-.18-.096-.462-.192-.846-.288-.384-.108-.846-.162-1.386-.162-.468 0-.876.096-1.224.288-.348.18-.522.468-.522.864 0 .204.036.384.108.54.084.156.204.3.36.432.168.12.372.234.612.342.24.108.528.222.864.342.444.168.84.336 1.188.504.348.156.642.342.882.558.252.216.444.48.576.792.132.3.198.672.198 1.116 0 .864-.324 1.518-.972 1.962-.636.444-1.548.666-2.736.666-.828 0-1.476-.072-1.944-.216-.468-.132-.786-.234-.954-.306l.306-1.44c.192.072.498.18.918.324.42.144.978.216 1.674.216zm5.333-3.456c0-.828.12-1.548.36-2.16.24-.624.558-1.14.954-1.548.396-.408.852-.714 1.368-.918.516-.204 1.044-.306 1.584-.306 1.26 0 2.226.396 2.898 1.188.672.78 1.008 1.974 1.008 3.582v.288c0 .108-.006.21-.018.306h-6.408c.072.972.354 1.71.846 2.214s1.26.756 2.304.756c.588 0 1.08-.048 1.476-.144.408-.108.714-.21.918-.306l.234 1.404c-.204.108-.564.222-1.08.342-.504.12-1.08.18-1.728.18-.816 0-1.524-.12-2.124-.36-.588-.252-1.074-.594-1.458-1.026-.384-.432-.672-.942-.864-1.53-.18-.6-.27-1.254-.27-1.962zm6.426-.918c.012-.756-.18-1.374-.576-1.854-.384-.492-.918-.738-1.602-.738-.384 0-.726.078-1.026.234-.288.144-.534.336-.738.576-.204.24-.366.516-.486.828-.108.312-.18.63-.216.954h4.644zm7.319 4.374c.396 0 .744-.006 1.044-.018.312-.024.57-.06.774-.108v-2.79c-.12-.06-.318-.108-.594-.144-.264-.048-.588-.072-.972-.072-.252 0-.522.018-.81.054-.276.036-.534.114-.774.234-.228.108-.42.264-.576.468-.156.192-.234.45-.234.774 0 .6.192 1.02.576 1.26.384.228.906.342 1.566.342zm-.144-8.388c.672 0 1.236.09 1.692.27.468.168.84.414 1.116.738.288.312.492.69.612 1.134.12.432.18.912.18 1.44v5.85c-.144.024-.348.06-.612.108-.252.036-.54.072-.864.108-.324.036-.678.066-1.062.09-.372.036-.744.054-1.116.054-.528 0-1.014-.054-1.458-.162-.444-.108-.828-.276-1.152-.504-.324-.24-.576-.552-.756-.936-.18-.384-.27-.846-.27-1.386 0-.516.102-.96.306-1.332.216-.372.504-.672.864-.9.36-.228.78-.396 1.26-.504.48-.108.984-.162 1.512-.162.168 0 .342.012.522.036.18.012.348.036.504.072.168.024.312.048.432.072.12.024.204.042.252.054v-.468c0-.276-.03-.546-.09-.81-.06-.276-.168-.516-.324-.72-.156-.216-.372-.384-.648-.504-.264-.132-.612-.198-1.044-.198-.552 0-1.038.042-1.458.126-.408.072-.714.15-.918.234l-.198-1.386c.216-.096.576-.186 1.08-.27.504-.096 1.05-.144 1.638-.144zm9.836.036c.144 0 .306.012.486.036.192.012.378.036.558.072.18.024.342.054.486.09.156.024.27.048.342.072l-.288 1.458c-.132-.048-.354-.102-.666-.162-.3-.072-.69-.108-1.17-.108-.312 0-.624.036-.936.108-.3.06-.498.102-.594.126V202h-1.674v-8.964c.396-.144.888-.276 1.476-.396.588-.132 1.248-.198 1.98-.198zm7.556 9.774c-.756 0-1.422-.12-1.998-.36-.564-.24-1.044-.576-1.44-1.008-.384-.432-.672-.942-.864-1.53-.192-.6-.288-1.26-.288-1.98s.102-1.38.306-1.98c.216-.6.516-1.116.9-1.548.384-.444.852-.786 1.404-1.026.564-.252 1.188-.378 1.872-.378.42 0 .84.036 1.26.108.42.072.822.186 1.206.342l-.378 1.422c-.252-.12-.546-.216-.882-.288-.324-.072-.672-.108-1.044-.108-.936 0-1.656.294-2.16.882-.492.588-.738 1.446-.738 2.574 0 .504.054.966.162 1.386.12.42.3.78.54 1.08.252.3.57.534.954.702.384.156.852.234 1.404.234.444 0 .846-.042 1.206-.126.36-.084.642-.174.846-.27l.234 1.404c-.096.06-.234.12-.414.18-.18.048-.384.09-.612.126-.228.048-.474.084-.738.108-.252.036-.498.054-.738.054zm4.299-.216v-13.68l1.674-.288v4.788c.312-.12.642-.21.99-.27.36-.072.714-.108 1.062-.108.744 0 1.362.108 1.854.324.492.204.882.498 1.17.882.3.372.51.822.63 1.35.12.528.18 1.11.18 1.746V202h-1.674v-4.896c0-.576-.042-1.068-.126-1.476-.072-.408-.198-.738-.378-.99s-.42-.432-.72-.54c-.3-.12-.672-.18-1.116-.18-.18 0-.366.012-.558.036-.192.024-.378.054-.558.09-.168.024-.324.054-.468.09-.132.036-.228.066-.288.09V202h-1.674zM381.882 202c-.204-.54-.396-1.068-.576-1.584-.18-.528-.366-1.062-.558-1.602h-5.652L373.962 202h-1.818c.48-1.32.93-2.538 1.35-3.654.42-1.128.828-2.196 1.224-3.204.408-1.008.81-1.968 1.206-2.88.396-.924.81-1.836 1.242-2.736h1.602c.432.9.846 1.812 1.242 2.736.396.912.792 1.872 1.188 2.88.408 1.008.822 2.076 1.242 3.204.42 1.116.87 2.334 1.35 3.654h-1.908zm-1.638-4.626c-.384-1.044-.768-2.052-1.152-3.024-.372-.984-.762-1.926-1.17-2.826-.42.9-.822 1.842-1.206 2.826-.372.972-.744 1.98-1.116 3.024h4.644zm5.132-4.464c.384-.096.894-.198 1.53-.306.636-.108 1.368-.162 2.196-.162.744 0 1.362.108 1.854.324.492.204.882.498 1.17.882.3.372.51.822.63 1.35.12.528.18 1.11.18 1.746V202h-1.674v-4.896c0-.576-.042-1.068-.126-1.476-.072-.408-.198-.738-.378-.99s-.42-.432-.72-.54c-.3-.12-.672-.18-1.116-.18-.18 0-.366.006-.558.018-.192.012-.378.03-.558.054-.168.012-.324.03-.468.054l-.288.054V202h-1.674v-9.09zm13.503 7.884c.396 0 .744-.006 1.044-.018.312-.024.57-.06.774-.108v-2.79c-.12-.06-.318-.108-.594-.144-.264-.048-.588-.072-.972-.072-.252 0-.522.018-.81.054-.276.036-.534.114-.774.234-.228.108-.42.264-.576.468-.156.192-.234.45-.234.774 0 .6.192 1.02.576 1.26.384.228.906.342 1.566.342zm-.144-8.388c.672 0 1.236.09 1.692.27.468.168.84.414 1.116.738.288.312.492.69.612 1.134.12.432.18.912.18 1.44v5.85c-.144.024-.348.06-.612.108-.252.036-.54.072-.864.108-.324.036-.678.066-1.062.09-.372.036-.744.054-1.116.054-.528 0-1.014-.054-1.458-.162-.444-.108-.828-.276-1.152-.504-.324-.24-.576-.552-.756-.936-.18-.384-.27-.846-.27-1.386 0-.516.102-.96.306-1.332.216-.372.504-.672.864-.9.36-.228.78-.396 1.26-.504.48-.108.984-.162 1.512-.162.168 0 .342.012.522.036.18.012.348.036.504.072.168.024.312.048.432.072.12.024.204.042.252.054v-.468c0-.276-.03-.546-.09-.81-.06-.276-.168-.516-.324-.72-.156-.216-.372-.384-.648-.504-.264-.132-.612-.198-1.044-.198-.552 0-1.038.042-1.458.126-.408.072-.714.15-.918.234l-.198-1.386c.216-.096.576-.186 1.08-.27.504-.096 1.05-.144 1.638-.144zm9.189 9.774c-1.032-.024-1.764-.246-2.196-.666-.432-.42-.648-1.074-.648-1.962V188.32l1.674-.288v11.25c0 .276.024.504.072.684.048.18.126.324.234.432.108.108.252.192.432.252.18.048.402.09.666.126l-.234 1.404zm1.016 1.566c.132.06.3.114.504.162.216.06.426.09.63.09.66 0 1.176-.15 1.548-.45.372-.288.708-.762 1.008-1.422-.756-1.44-1.464-2.964-2.124-4.572-.648-1.62-1.188-3.258-1.62-4.914h1.8c.132.54.288 1.122.468 1.746.192.624.402 1.266.63 1.926.228.66.474 1.32.738 1.98.264.66.54 1.296.828 1.908.456-1.26.852-2.508 1.188-3.744.336-1.236.654-2.508.954-3.816h1.728c-.432 1.764-.912 3.462-1.44 5.094-.528 1.62-1.098 3.138-1.71 4.554-.24.54-.492 1.002-.756 1.386-.252.396-.534.72-.846.972-.312.252-.666.438-1.062.558-.384.12-.822.18-1.314.18-.132 0-.27-.012-.414-.036-.144-.012-.288-.036-.432-.072-.132-.024-.258-.054-.378-.09-.108-.036-.186-.066-.234-.09l.306-1.35zm16.255-9.846c-.252.276-.588.666-1.008 1.17-.408.504-.852 1.062-1.332 1.674-.468.612-.942 1.254-1.422 1.926-.468.672-.882 1.314-1.242 1.926h5.148V202h-7.146v-1.116c.288-.528.642-1.11 1.062-1.746.42-.636.858-1.266 1.314-1.89.468-.636.918-1.23 1.35-1.782.444-.564.828-1.038 1.152-1.422h-4.626v-1.404h6.75v1.26zm1.407 3.438c0-.828.12-1.548.36-2.16.24-.624.558-1.14.954-1.548.396-.408.852-.714 1.368-.918.516-.204 1.044-.306 1.584-.306 1.26 0 2.226.396 2.898 1.188.672.78 1.008 1.974 1.008 3.582v.288c0 .108-.006.21-.018.306h-6.408c.072.972.354 1.71.846 2.214s1.26.756 2.304.756c.588 0 1.08-.048 1.476-.144.408-.108.714-.21.918-.306l.234 1.404c-.204.108-.564.222-1.08.342-.504.12-1.08.18-1.728.18-.816 0-1.524-.12-2.124-.36-.588-.252-1.074-.594-1.458-1.026-.384-.432-.672-.942-.864-1.53-.18-.6-.27-1.254-.27-1.962zm6.426-.918c.012-.756-.18-1.374-.576-1.854-.384-.492-.918-.738-1.602-.738-.384 0-.726.078-1.026.234-.288.144-.534.336-.738.576-.204.24-.366.516-.486.828-.108.312-.18.63-.216.954h4.644zM536.914 202.108c-.252 0-.528-.006-.828-.018-.288-.012-.582-.03-.882-.054-.288-.024-.576-.054-.864-.09-.288-.036-.552-.084-.792-.144v-12.096c.24-.06.504-.108.792-.144.288-.036.576-.066.864-.09.3-.024.594-.042.882-.054.288-.012.558-.018.81-.018.72 0 1.392.054 2.016.162.636.108 1.182.294 1.638.558.468.252.834.588 1.098 1.008.264.42.396.936.396 1.548 0 .684-.162 1.248-.486 1.692-.324.432-.756.756-1.296.972.732.216 1.314.558 1.746 1.026.432.468.648 1.128.648 1.98 0 1.248-.462 2.19-1.386 2.826-.912.624-2.364.936-4.356.936zm-1.638-5.922v4.392c.132.012.288.024.468.036.156.012.336.024.54.036h.738c.516 0 1.002-.03 1.458-.09.468-.072.876-.192 1.224-.36.348-.168.624-.402.828-.702.216-.3.324-.678.324-1.134 0-.408-.078-.75-.234-1.026-.156-.288-.384-.516-.684-.684-.288-.168-.636-.288-1.044-.36-.408-.072-.864-.108-1.368-.108h-2.25zm0-1.404h1.836c.432 0 .84-.03 1.224-.09s.714-.168.99-.324c.288-.156.51-.36.666-.612.168-.252.252-.57.252-.954 0-.36-.084-.66-.252-.9-.168-.252-.402-.45-.702-.594-.288-.156-.63-.27-1.026-.342-.396-.072-.816-.108-1.26-.108-.444 0-.792.006-1.044.018-.252.012-.48.03-.684.054v3.852zm13.186-2.34c.144 0 .306.012.486.036.192.012.378.036.558.072.18.024.342.054.486.09.156.024.27.048.342.072l-.288 1.458c-.132-.048-.354-.102-.666-.162-.3-.072-.69-.108-1.17-.108-.312 0-.624.036-.936.108-.3.06-.498.102-.594.126V202h-1.674v-8.964c.396-.144.888-.276 1.476-.396.588-.132 1.248-.198 1.98-.198zm6.656 8.352c.396 0 .744-.006 1.044-.018.312-.024.57-.06.774-.108v-2.79c-.12-.06-.318-.108-.594-.144-.264-.048-.588-.072-.972-.072-.252 0-.522.018-.81.054-.276.036-.534.114-.774.234-.228.108-.42.264-.576.468-.156.192-.234.45-.234.774 0 .6.192 1.02.576 1.26.384.228.906.342 1.566.342zm-.144-8.388c.672 0 1.236.09 1.692.27.468.168.84.414 1.116.738.288.312.492.69.612 1.134.12.432.18.912.18 1.44v5.85c-.144.024-.348.06-.612.108-.252.036-.54.072-.864.108-.324.036-.678.066-1.062.09-.372.036-.744.054-1.116.054-.528 0-1.014-.054-1.458-.162-.444-.108-.828-.276-1.152-.504-.324-.24-.576-.552-.756-.936-.18-.384-.27-.846-.27-1.386 0-.516.102-.96.306-1.332.216-.372.504-.672.864-.9.36-.228.78-.396 1.26-.504.48-.108.984-.162 1.512-.162.168 0 .342.012.522.036.18.012.348.036.504.072.168.024.312.048.432.072.12.024.204.042.252.054v-.468c0-.276-.03-.546-.09-.81-.06-.276-.168-.516-.324-.72-.156-.216-.372-.384-.648-.504-.264-.132-.612-.198-1.044-.198-.552 0-1.038.042-1.458.126-.408.072-.714.15-.918.234l-.198-1.386c.216-.096.576-.186 1.08-.27.504-.096 1.05-.144 1.638-.144zm8.054 9.594h-1.674v-9.36h1.674V202zm-.846-11.052c-.3 0-.558-.096-.774-.288-.204-.204-.306-.474-.306-.81 0-.336.102-.6.306-.792.216-.204.474-.306.774-.306.3 0 .552.102.756.306.216.192.324.456.324.792s-.108.606-.324.81c-.204.192-.456.288-.756.288zm3.725 1.962c.384-.096.894-.198 1.53-.306.636-.108 1.368-.162 2.196-.162.744 0 1.362.108 1.854.324.492.204.882.498 1.17.882.3.372.51.822.63 1.35.12.528.18 1.11.18 1.746V202h-1.674v-4.896c0-.576-.042-1.068-.126-1.476-.072-.408-.198-.738-.378-.99s-.42-.432-.72-.54c-.3-.12-.672-.18-1.116-.18-.18 0-.366.006-.558.018-.192.012-.378.03-.558.054-.168.012-.324.03-.468.054l-.288.054V202h-1.674v-9.09zm12.514 7.884c.684 0 1.188-.09 1.512-.27.336-.18.504-.468.504-.864 0-.408-.162-.732-.486-.972-.324-.24-.858-.51-1.602-.81-.36-.144-.708-.288-1.044-.432-.324-.156-.606-.336-.846-.54-.24-.204-.432-.45-.576-.738-.144-.288-.216-.642-.216-1.062 0-.828.306-1.482.918-1.962.612-.492 1.446-.738 2.502-.738.264 0 .528.018.792.054.264.024.51.06.738.108.228.036.426.078.594.126.18.048.318.09.414.126l-.306 1.44c-.18-.096-.462-.192-.846-.288-.384-.108-.846-.162-1.386-.162-.468 0-.876.096-1.224.288-.348.18-.522.468-.522.864 0 .204.036.384.108.54.084.156.204.3.36.432.168.12.372.234.612.342.24.108.528.222.864.342.444.168.84.336 1.188.504.348.156.642.342.882.558.252.216.444.48.576.792.132.3.198.672.198 1.116 0 .864-.324 1.518-.972 1.962-.636.444-1.548.666-2.736.666-.828 0-1.476-.072-1.944-.216-.468-.132-.786-.234-.954-.306l.306-1.44c.192.072.498.18.918.324.42.144.978.216 1.674.216zm7.421-8.154h3.546v1.404h-3.546v4.32c0 .468.036.858.108 1.17.072.3.18.54.324.72.144.168.324.288.54.36.216.072.468.108.756.108.504 0 .906-.054 1.206-.162.312-.12.528-.204.648-.252l.324 1.386c-.168.084-.462.186-.882.306-.42.132-.9.198-1.44.198-.636 0-1.164-.078-1.584-.234-.408-.168-.738-.414-.99-.738s-.432-.72-.54-1.188c-.096-.48-.144-1.032-.144-1.656v-8.352l1.674-.288v2.898zm13.692 4.68c0 .744-.108 1.416-.324 2.016-.216.6-.522 1.116-.918 1.548-.384.432-.846.768-1.386 1.008-.54.228-1.128.342-1.764.342-.636 0-1.224-.114-1.764-.342-.54-.24-1.008-.576-1.404-1.008-.384-.432-.684-.948-.9-1.548-.216-.6-.324-1.272-.324-2.016 0-.732.108-1.398.324-1.998.216-.612.516-1.134.9-1.566.396-.432.864-.762 1.404-.99.54-.24 1.128-.36 1.764-.36.636 0 1.224.12 1.764.36.54.228 1.002.558 1.386.99.396.432.702.954.918 1.566.216.6.324 1.266.324 1.998zm-1.746 0c0-1.056-.24-1.89-.72-2.502-.468-.624-1.11-.936-1.926-.936-.816 0-1.464.312-1.944.936-.468.612-.702 1.446-.702 2.502 0 1.056.234 1.896.702 2.52.48.612 1.128.918 1.944.918.816 0 1.458-.306 1.926-.918.48-.624.72-1.464.72-2.52zm7.557-4.878c.144 0 .306.012.486.036.192.012.378.036.558.072.18.024.342.054.486.09.156.024.27.048.342.072l-.288 1.458c-.132-.048-.354-.102-.666-.162-.3-.072-.69-.108-1.17-.108-.312 0-.624.036-.936.108-.3.06-.498.102-.594.126V202h-1.674v-8.964c.396-.144.888-.276 1.476-.396.588-.132 1.248-.198 1.98-.198zm3.488.468c.384-.096.888-.198 1.512-.306.636-.108 1.368-.162 2.196-.162.6 0 1.104.084 1.512.252.408.156.75.39 1.026.702.084-.06.216-.144.396-.252.18-.108.402-.21.666-.306.264-.108.558-.198.882-.27.324-.084.672-.126 1.044-.126.72 0 1.308.108 1.764.324.456.204.81.498 1.062.882.264.384.438.84.522 1.368.096.528.144 1.104.144 1.728V202h-1.674v-4.896c0-.552-.03-1.026-.09-1.422-.048-.396-.15-.726-.306-.99-.144-.264-.348-.456-.612-.576-.252-.132-.582-.198-.99-.198-.564 0-1.032.078-1.404.234-.36.144-.606.276-.738.396.096.312.168.654.216 1.026.048.372.072.762.072 1.17V202h-1.674v-4.896c0-.552-.03-1.026-.09-1.422-.06-.396-.168-.726-.324-.99-.144-.264-.348-.456-.612-.576-.252-.132-.576-.198-.972-.198-.168 0-.348.006-.54.018-.192.012-.378.03-.558.054-.168.012-.324.03-.468.054-.144.024-.24.042-.288.054V202h-1.674v-9.09zM792.882 189.526v1.512h-3.924V202h-1.746v-10.962h-3.924v-1.512h9.594zm.229 7.812c0-.828.12-1.548.36-2.16.24-.624.558-1.14.954-1.548.396-.408.852-.714 1.368-.918.516-.204 1.044-.306 1.584-.306 1.26 0 2.226.396 2.898 1.188.672.78 1.008 1.974 1.008 3.582v.288c0 .108-.006.21-.018.306h-6.408c.072.972.354 1.71.846 2.214s1.26.756 2.304.756c.588 0 1.08-.048 1.476-.144.408-.108.714-.21.918-.306l.234 1.404c-.204.108-.564.222-1.08.342-.504.12-1.08.18-1.728.18-.816 0-1.524-.12-2.124-.36-.588-.252-1.074-.594-1.458-1.026-.384-.432-.672-.942-.864-1.53-.18-.6-.27-1.254-.27-1.962zm6.426-.918c.012-.756-.18-1.374-.576-1.854-.384-.492-.918-.738-1.602-.738-.384 0-.726.078-1.026.234-.288.144-.534.336-.738.576-.204.24-.366.516-.486.828-.108.312-.18.63-.216.954h4.644zm6.329 4.374c.684 0 1.188-.09 1.512-.27.336-.18.504-.468.504-.864 0-.408-.162-.732-.486-.972-.324-.24-.858-.51-1.602-.81-.36-.144-.708-.288-1.044-.432-.324-.156-.606-.336-.846-.54-.24-.204-.432-.45-.576-.738-.144-.288-.216-.642-.216-1.062 0-.828.306-1.482.918-1.962.612-.492 1.446-.738 2.502-.738.264 0 .528.018.792.054.264.024.51.06.738.108.228.036.426.078.594.126.18.048.318.09.414.126l-.306 1.44c-.18-.096-.462-.192-.846-.288-.384-.108-.846-.162-1.386-.162-.468 0-.876.096-1.224.288-.348.18-.522.468-.522.864 0 .204.036.384.108.54.084.156.204.3.36.432.168.12.372.234.612.342.24.108.528.222.864.342.444.168.84.336 1.188.504.348.156.642.342.882.558.252.216.444.48.576.792.132.3.198.672.198 1.116 0 .864-.324 1.518-.972 1.962-.636.444-1.548.666-2.736.666-.828 0-1.476-.072-1.944-.216-.468-.132-.786-.234-.954-.306l.306-1.44c.192.072.498.18.918.324.42.144.978.216 1.674.216zm7.421-8.154h3.546v1.404h-3.546v4.32c0 .468.036.858.108 1.17.072.3.18.54.324.72.144.168.324.288.54.36.216.072.468.108.756.108.504 0 .906-.054 1.206-.162.312-.12.528-.204.648-.252l.324 1.386c-.168.084-.462.186-.882.306-.42.132-.9.198-1.44.198-.636 0-1.164-.078-1.584-.234-.408-.168-.738-.414-.99-.738s-.432-.72-.54-1.188c-.096-.48-.144-1.032-.144-1.656v-8.352l1.674-.288v2.898z"/>
    <path fill="#27272A" d="M902.446 200.758c1.824 0 2.736-.624 2.736-1.872 0-.384-.084-.708-.252-.972-.156-.276-.372-.51-.648-.702-.276-.204-.594-.378-.954-.522-.348-.144-.72-.288-1.116-.432-.456-.156-.888-.33-1.296-.522-.408-.204-.762-.438-1.062-.702-.3-.276-.54-.6-.72-.972-.168-.372-.252-.822-.252-1.35 0-1.092.372-1.944 1.116-2.556.744-.612 1.77-.918 3.078-.918.756 0 1.44.084 2.052.252.624.156 1.08.33 1.368.522l-.558 1.422c-.252-.156-.63-.306-1.134-.45-.492-.156-1.068-.234-1.728-.234-.336 0-.648.036-.936.108-.288.072-.54.18-.756.324-.216.144-.39.33-.522.558-.12.216-.18.474-.18.774 0 .336.066.618.198.846.132.228.318.432.558.612.24.168.516.324.828.468.324.144.678.288 1.062.432.54.216 1.032.432 1.476.648.456.216.846.474 1.17.774.336.3.594.66.774 1.08.18.408.27.906.27 1.494 0 1.092-.402 1.932-1.206 2.52-.792.588-1.914.882-3.366.882-.492 0-.948-.036-1.368-.108-.408-.06-.774-.132-1.098-.216-.324-.096-.606-.192-.846-.288-.228-.108-.408-.198-.54-.27l.522-1.44c.276.156.696.33 1.26.522.564.192 1.254.288 2.07.288zm14.836-3.438c0 .744-.108 1.416-.324 2.016-.216.6-.522 1.116-.918 1.548-.384.432-.846.768-1.386 1.008-.54.228-1.128.342-1.764.342-.636 0-1.224-.114-1.764-.342-.54-.24-1.008-.576-1.404-1.008-.384-.432-.684-.948-.9-1.548-.216-.6-.324-1.272-.324-2.016 0-.732.108-1.398.324-1.998.216-.612.516-1.134.9-1.566.396-.432.864-.762 1.404-.99.54-.24 1.128-.36 1.764-.36.636 0 1.224.12 1.764.36.54.228 1.002.558 1.386.99.396.432.702.954.918 1.566.216.6.324 1.266.324 1.998zm-1.746 0c0-1.056-.24-1.89-.72-2.502-.468-.624-1.11-.936-1.926-.936-.816 0-1.464.312-1.944.936-.468.612-.702 1.446-.702 2.502 0 1.056.234 1.896.702 2.52.48.612 1.128.918 1.944.918.816 0 1.458-.306 1.926-.918.48-.624.72-1.464.72-2.52zm6.909 4.86c-1.032-.024-1.764-.246-2.196-.666-.432-.42-.648-1.074-.648-1.962V188.32l1.674-.288v11.25c0 .276.024.504.072.684.048.18.126.324.234.432.108.108.252.192.432.252.18.048.402.09.666.126l-.234 1.404zm9.566-.45c-.384.096-.894.198-1.53.306-.624.108-1.35.162-2.178.162-.72 0-1.326-.102-1.818-.306-.492-.216-.888-.516-1.188-.9-.3-.384-.516-.834-.648-1.35-.132-.528-.198-1.11-.198-1.746v-5.256h1.674v4.896c0 1.14.18 1.956.54 2.448.36.492.966.738 1.818.738.18 0 .366-.006.558-.018l.54-.036c.168-.024.318-.042.45-.054.144-.024.246-.048.306-.072v-7.902h1.674v9.09zm4.45-9.09h3.546v1.404h-3.546v4.32c0 .468.036.858.108 1.17.072.3.18.54.324.72.144.168.324.288.54.36.216.072.468.108.756.108.504 0 .906-.054 1.206-.162.312-.12.528-.204.648-.252l.324 1.386c-.168.084-.462.186-.882.306-.42.132-.9.198-1.44.198-.636 0-1.164-.078-1.584-.234-.408-.168-.738-.414-.99-.738s-.432-.72-.54-1.188c-.096-.48-.144-1.032-.144-1.656v-8.352l1.674-.288v2.898zm7.35 9.36h-1.674v-9.36h1.674V202zm-.846-11.052c-.3 0-.558-.096-.774-.288-.204-.204-.306-.474-.306-.81 0-.336.102-.6.306-.792.216-.204.474-.306.774-.306.3 0 .552.102.756.306.216.192.324.456.324.792s-.108.606-.324.81c-.204.192-.456.288-.756.288zm11.987 6.372c0 .744-.108 1.416-.324 2.016-.216.6-.522 1.116-.918 1.548-.384.432-.846.768-1.386 1.008-.54.228-1.128.342-1.764.342-.636 0-1.224-.114-1.764-.342-.54-.24-1.008-.576-1.404-1.008-.384-.432-.684-.948-.9-1.548-.216-.6-.324-1.272-.324-2.016 0-.732.108-1.398.324-1.998.216-.612.516-1.134.9-1.566.396-.432.864-.762 1.404-.99.54-.24 1.128-.36 1.764-.36.636 0 1.224.12 1.764.36.54.228 1.002.558 1.386.99.396.432.702.954.918 1.566.216.6.324 1.266.324 1.998zm-1.746 0c0-1.056-.24-1.89-.72-2.502-.468-.624-1.11-.936-1.926-.936-.816 0-1.464.312-1.944.936-.468.612-.702 1.446-.702 2.502 0 1.056.234 1.896.702 2.52.48.612 1.128.918 1.944.918.816 0 1.458-.306 1.926-.918.48-.624.72-1.464.72-2.52zm4.101-4.41c.384-.096.894-.198 1.53-.306.636-.108 1.368-.162 2.196-.162.744 0 1.362.108 1.854.324.492.204.882.498 1.17.882.3.372.51.822.63 1.35.12.528.18 1.11.18 1.746V202h-1.674v-4.896c0-.576-.042-1.068-.126-1.476-.072-.408-.198-.738-.378-.99s-.42-.432-.72-.54c-.3-.12-.672-.18-1.116-.18-.18 0-.366.006-.558.018-.192.012-.378.03-.558.054-.168.012-.324.03-.468.054l-.288.054V202h-1.674v-9.09zM166.79 17.754c0 1.08-.168 2.022-.504 2.826-.336.792-.81 1.452-1.422 1.98-.612.516-1.344.906-2.196 1.17-.852.252-1.788.378-2.808.378-.504 0-1.062-.024-1.674-.072-.6-.036-1.146-.114-1.638-.234V11.706c.492-.12 1.038-.198 1.638-.234.612-.048 1.17-.072 1.674-.072 1.02 0 1.956.132 2.808.396.852.252 1.584.642 2.196 1.17.612.516 1.086 1.176 1.422 1.98.336.792.504 1.728.504 2.808zm-6.786 4.824c1.656 0 2.892-.42 3.708-1.26.816-.852 1.224-2.04 1.224-3.564s-.408-2.706-1.224-3.546c-.816-.852-2.052-1.278-3.708-1.278-.492 0-.876.006-1.152.018-.264.012-.45.024-.558.036v9.54c.108.012.294.024.558.036.276.012.66.018 1.152.018zM170.946 24h-1.674v-9.36h1.674V24zm-.846-11.052c-.3 0-.558-.096-.774-.288-.204-.204-.306-.474-.306-.81 0-.336.102-.6.306-.792.216-.204.474-.306.774-.306.3 0 .552.102.756.306.216.192.324.456.324.792s-.108.606-.324.81c-.204.192-.456.288-.756.288zm5.903 9.846c.684 0 1.188-.09 1.512-.27.336-.18.504-.468.504-.864 0-.408-.162-.732-.486-.972-.324-.24-.858-.51-1.602-.81-.36-.144-.708-.288-1.044-.432-.324-.156-.606-.336-.846-.54-.24-.204-.432-.45-.576-.738-.144-.288-.216-.642-.216-1.062 0-.828.306-1.482.918-1.962.612-.492 1.446-.738 2.502-.738.264 0 .528.018.792.054.264.024.51.06.738.108.228.036.426.078.594.126.18.048.318.09.414.126l-.306 1.44c-.18-.096-.462-.192-.846-.288-.384-.108-.846-.162-1.386-.162-.468 0-.876.096-1.224.288-.348.18-.522.468-.522.864 0 .204.036.384.108.54.084.156.204.3.36.432.168.12.372.234.612.342.24.108.528.222.864.342.444.168.84.336 1.188.504.348.156.642.342.882.558.252.216.444.48.576.792.132.3.198.672.198 1.116 0 .864-.324 1.518-.972 1.962-.636.444-1.548.666-2.736.666-.828 0-1.476-.072-1.944-.216-.468-.132-.786-.234-.954-.306l.306-1.44c.192.072.498.18.918.324.42.144.978.216 1.674.216zm9.923 1.422c-.756 0-1.422-.12-1.998-.36-.564-.24-1.044-.576-1.44-1.008-.384-.432-.672-.942-.864-1.53-.192-.6-.288-1.26-.288-1.98s.102-1.38.306-1.98c.216-.6.516-1.116.9-1.548.384-.444.852-.786 1.404-1.026.564-.252 1.188-.378 1.872-.378.42 0 .84.036 1.26.108.42.072.822.186 1.206.342l-.378 1.422c-.252-.12-.546-.216-.882-.288-.324-.072-.672-.108-1.044-.108-.936 0-1.656.294-2.16.882-.492.588-.738 1.446-.738 2.574 0 .504.054.966.162 1.386.12.42.3.78.54 1.08.252.3.57.534.954.702.384.156.852.234 1.404.234.444 0 .846-.042 1.206-.126.36-.084.642-.174.846-.27l.234 1.404c-.096.06-.234.12-.414.18-.18.048-.384.09-.612.126-.228.048-.474.084-.738.108-.252.036-.498.054-.738.054zm12.333-4.896c0 .744-.108 1.416-.324 2.016-.216.6-.522 1.116-.918 1.548-.384.432-.846.768-1.386 1.008-.54.228-1.128.342-1.764.342-.636 0-1.224-.114-1.764-.342-.54-.24-1.008-.576-1.404-1.008-.384-.432-.684-.948-.9-1.548-.216-.6-.324-1.272-.324-2.016 0-.732.108-1.398.324-1.998.216-.612.516-1.134.9-1.566.396-.432.864-.762 1.404-.99.54-.24 1.128-.36 1.764-.36.636 0 1.224.12 1.764.36.54.228 1.002.558 1.386.99.396.432.702.954.918 1.566.216.6.324 1.266.324 1.998zm-1.746 0c0-1.056-.24-1.89-.72-2.502-.468-.624-1.11-.936-1.926-.936-.816 0-1.464.312-1.944.936-.468.612-.702 1.446-.702 2.502 0 1.056.234 1.896.702 2.52.48.612 1.128.918 1.944.918.816 0 1.458-.306 1.926-.918.48-.624.72-1.464.72-2.52zm11.163-4.68c-.468 1.752-1.02 3.432-1.656 5.04-.624 1.608-1.23 3.048-1.818 4.32h-1.512c-.588-1.272-1.2-2.712-1.836-4.32-.624-1.608-1.17-3.288-1.638-5.04h1.8c.144.588.312 1.218.504 1.89.204.66.414 1.32.63 1.98.228.648.456 1.278.684 1.89.228.612.444 1.158.648 1.638.204-.48.42-1.026.648-1.638.228-.612.45-1.242.666-1.89.228-.66.438-1.32.63-1.98.204-.672.378-1.302.522-1.89h1.728zm.959 4.698c0-.828.12-1.548.36-2.16.24-.624.558-1.14.954-1.548.396-.408.852-.714 1.368-.918.516-.204 1.044-.306 1.584-.306 1.26 0 2.226.396 2.898 1.188.672.78 1.008 1.974 1.008 3.582v.288c0 .108-.006.21-.018.306h-6.408c.072.972.354 1.71.846 2.214s1.26.756 2.304.756c.588 0 1.08-.048 1.476-.144.408-.108.714-.21.918-.306l.234 1.404c-.204.108-.564.222-1.08.342-.504.12-1.08.18-1.728.18-.816 0-1.524-.12-2.124-.36-.588-.252-1.074-.594-1.458-1.026-.384-.432-.672-.942-.864-1.53-.18-.6-.27-1.254-.27-1.962zm6.426-.918c.012-.756-.18-1.374-.576-1.854-.384-.492-.918-.738-1.602-.738-.384 0-.726.078-1.026.234-.288.144-.534.336-.738.576-.204.24-.366.516-.486.828-.108.312-.18.63-.216.954h4.644zm7.606-3.978c.144 0 .306.012.486.036.192.012.378.036.558.072.18.024.342.054.486.09.156.024.27.048.342.072l-.288 1.458c-.132-.048-.354-.102-.666-.162-.3-.072-.69-.108-1.17-.108-.312 0-.624.036-.936.108-.3.06-.498.102-.594.126V24h-1.674v-8.964c.396-.144.888-.276 1.476-.396.588-.132 1.248-.198 1.98-.198zM383.79 17.754c0 1.08-.168 2.022-.504 2.826-.336.792-.81 1.452-1.422 1.98-.612.516-1.344.906-2.196 1.17-.852.252-1.788.378-2.808.378-.504 0-1.062-.024-1.674-.072-.6-.036-1.146-.114-1.638-.234V11.706c.492-.12 1.038-.198 1.638-.234.612-.048 1.17-.072 1.674-.072 1.02 0 1.956.132 2.808.396.852.252 1.584.642 2.196 1.17.612.516 1.086 1.176 1.422 1.98.336.792.504 1.728.504 2.808zm-6.786 4.824c1.656 0 2.892-.42 3.708-1.26.816-.852 1.224-2.04 1.224-3.564s-.408-2.706-1.224-3.546c-.816-.852-2.052-1.278-3.708-1.278-.492 0-.876.006-1.152.018-.264.012-.45.024-.558.036v9.54c.108.012.294.024.558.036.276.012.66.018 1.152.018zm8.746-3.24c0-.828.12-1.548.36-2.16.24-.624.558-1.14.954-1.548.396-.408.852-.714 1.368-.918.516-.204 1.044-.306 1.584-.306 1.26 0 2.226.396 2.898 1.188.672.78 1.008 1.974 1.008 3.582v.288c0 .108-.006.21-.018.306h-6.408c.072.972.354 1.71.846 2.214s1.26.756 2.304.756c.588 0 1.08-.048 1.476-.144.408-.108.714-.21.918-.306l.234 1.404c-.204.108-.564.222-1.08.342-.504.12-1.08.18-1.728.18-.816 0-1.524-.12-2.124-.36-.588-.252-1.074-.594-1.458-1.026-.384-.432-.672-.942-.864-1.53-.18-.6-.27-1.254-.27-1.962zm6.426-.918c.012-.756-.18-1.374-.576-1.854-.384-.492-.918-.738-1.602-.738-.384 0-.726.078-1.026.234-.288.144-.534.336-.738.576-.204.24-.366.516-.486.828-.108.312-.18.63-.216.954h4.644zm7.805-8.388c.42 0 .78.03 1.08.09.3.048.516.096.648.144l-.234 1.44c-.132-.048-.312-.096-.54-.144-.228-.06-.504-.09-.828-.09-.78 0-1.326.216-1.638.648-.312.42-.468.99-.468 1.71v.81h3.6v1.404h-3.6V24h-1.674V13.794c0-1.2.294-2.124.882-2.772.588-.66 1.512-.99 2.772-.99zM405.021 24h-1.674v-9.36h1.674V24zm-.846-11.052c-.3 0-.558-.096-.774-.288-.204-.204-.306-.474-.306-.81 0-.336.102-.6.306-.792.216-.204.474-.306.774-.306.3 0 .552.102.756.306.216.192.324.456.324.792s-.108.606-.324.81c-.204.192-.456.288-.756.288zm3.718 1.962c.384-.096.894-.198 1.53-.306.636-.108 1.368-.162 2.196-.162.744 0 1.362.108 1.854.324.492.204.882.498 1.17.882.3.372.51.822.63 1.35.12.528.18 1.11.18 1.746V24h-1.674v-4.896c0-.576-.042-1.068-.126-1.476-.072-.408-.198-.738-.378-.99s-.42-.432-.72-.54c-.3-.12-.672-.18-1.116-.18-.18 0-.366.006-.558.018-.192.012-.378.03-.558.054-.168.012-.324.03-.468.054l-.288.054V24h-1.674v-9.09zm9.814 4.428c0-.828.12-1.548.36-2.16.24-.624.558-1.14.954-1.548.396-.408.852-.714 1.368-.918.516-.204 1.044-.306 1.584-.306 1.26 0 2.226.396 2.898 1.188.672.78 1.008 1.974 1.008 3.582v.288c0 .108-.006.21-.018.306h-6.408c.072.972.354 1.71.846 2.214s1.26.756 2.304.756c.588 0 1.08-.048 1.476-.144.408-.108.714-.21.918-.306l.234 1.404c-.204.108-.564.222-1.08.342-.504.12-1.08.18-1.728.18-.816 0-1.524-.12-2.124-.36-.588-.252-1.074-.594-1.458-1.026-.384-.432-.672-.942-.864-1.53-.18-.6-.27-1.254-.27-1.962zm6.426-.918c.012-.756-.18-1.374-.576-1.854-.384-.492-.918-.738-1.602-.738-.384 0-.726.078-1.026.234-.288.144-.534.336-.738.576-.204.24-.366.516-.486.828-.108.312-.18.63-.216.954h4.644zM533.548 11.526h1.746V24h-1.746V11.526zm10.774 5.094c-.204-.168-.498-.33-.882-.486-.384-.156-.804-.234-1.26-.234-.48 0-.894.09-1.242.27-.336.168-.612.408-.828.72-.216.3-.372.66-.468 1.08-.096.42-.144.87-.144 1.35 0 1.092.27 1.938.81 2.538.54.588 1.26.882 2.16.882.456 0 .834-.018 1.134-.054.312-.048.552-.096.72-.144V16.62zm0-6.3l1.674-.288V23.73c-.384.108-.876.216-1.476.324-.6.108-1.29.162-2.07.162-.72 0-1.368-.114-1.944-.342-.576-.228-1.068-.552-1.476-.972-.408-.42-.726-.93-.954-1.53-.216-.612-.324-1.296-.324-2.052 0-.72.09-1.38.27-1.98.192-.6.468-1.116.828-1.548.36-.432.798-.768 1.314-1.008.528-.24 1.128-.36 1.8-.36.54 0 1.014.072 1.422.216.42.144.732.282.936.414V10.32zm4.03 9.018c0-.828.12-1.548.36-2.16.24-.624.558-1.14.954-1.548.396-.408.852-.714 1.368-.918.516-.204 1.044-.306 1.584-.306 1.26 0 2.226.396 2.898 1.188.672.78 1.008 1.974 1.008 3.582v.288c0 .108-.006.21-.018.306h-6.408c.072.972.354 1.71.846 2.214s1.26.756 2.304.756c.588 0 1.08-.048 1.476-.144.408-.108.714-.21.918-.306l.234 1.404c-.204.108-.564.222-1.08.342-.504.12-1.08.18-1.728.18-.816 0-1.524-.12-2.124-.36-.588-.252-1.074-.594-1.458-1.026-.384-.432-.672-.942-.864-1.53-.18-.6-.27-1.254-.27-1.962zm6.426-.918c.012-.756-.18-1.374-.576-1.854-.384-.492-.918-.738-1.602-.738-.384 0-.726.078-1.026.234-.288.144-.534.336-.738.576-.204.24-.366.516-.486.828-.108.312-.18.63-.216.954h4.644zm7.318 4.374c.396 0 .744-.006 1.044-.018.312-.024.57-.06.774-.108v-2.79c-.12-.06-.318-.108-.594-.144-.264-.048-.588-.072-.972-.072-.252 0-.522.018-.81.054-.276.036-.534.114-.774.234-.228.108-.42.264-.576.468-.156.192-.234.45-.234.774 0 .6.192 1.02.576 1.26.384.228.906.342 1.566.342zm-.144-8.388c.672 0 1.236.09 1.692.27.468.168.84.414 1.116.738.288.312.492.69.612 1.134.12.432.18.912.18 1.44v5.85c-.144.024-.348.06-.612.108-.252.036-.54.072-.864.108-.324.036-.678.066-1.062.09-.372.036-.744.054-1.116.054-.528 0-1.014-.054-1.458-.162-.444-.108-.828-.276-1.152-.504-.324-.24-.576-.552-.756-.936-.18-.384-.27-.846-.27-1.386 0-.516.102-.96.306-1.332.216-.372.504-.672.864-.9.36-.228.78-.396 1.26-.504.48-.108.984-.162 1.512-.162.168 0 .342.012.522.036.18.012.348.036.504.072.168.024.312.048.432.072.12.024.204.042.252.054v-.468c0-.276-.03-.546-.09-.81-.06-.276-.168-.516-.324-.72-.156-.216-.372-.384-.648-.504-.264-.132-.612-.198-1.044-.198-.552 0-1.038.042-1.458.126-.408.072-.714.15-.918.234l-.198-1.386c.216-.096.576-.186 1.08-.27.504-.096 1.05-.144 1.638-.144zm7.947.234h3.546v1.404h-3.546v4.32c0 .468.036.858.108 1.17.072.3.18.54.324.72.144.168.324.288.54.36.216.072.468.108.756.108.504 0 .906-.054 1.206-.162.312-.12.528-.204.648-.252l.324 1.386c-.168.084-.462.186-.882.306-.42.132-.9.198-1.44.198-.636 0-1.164-.078-1.584-.234-.408-.168-.738-.414-.99-.738s-.432-.72-.54-1.188c-.096-.48-.144-1.032-.144-1.656V12.03l1.674-.288v2.898zm4.978 4.698c0-.828.12-1.548.36-2.16.24-.624.558-1.14.954-1.548.396-.408.852-.714 1.368-.918.516-.204 1.044-.306 1.584-.306 1.26 0 2.226.396 2.898 1.188.672.78 1.008 1.974 1.008 3.582v.288c0 .108-.006.21-.018.306h-6.408c.072.972.354 1.71.846 2.214s1.26.756 2.304.756c.588 0 1.08-.048 1.476-.144.408-.108.714-.21.918-.306l.234 1.404c-.204.108-.564.222-1.08.342-.504.12-1.08.18-1.728.18-.816 0-1.524-.12-2.124-.36-.588-.252-1.074-.594-1.458-1.026-.384-.432-.672-.942-.864-1.53-.18-.6-.27-1.254-.27-1.962zm6.426-.918c.012-.756-.18-1.374-.576-1.854-.384-.492-.918-.738-1.602-.738-.384 0-.726.078-1.026.234-.288.144-.534.336-.738.576-.204.24-.366.516-.486.828-.108.312-.18.63-.216.954h4.644zM784.548 11.526h1.746V24h-1.746V11.526zm4.726 3.384c.384-.096.888-.198 1.512-.306.636-.108 1.368-.162 2.196-.162.6 0 1.104.084 1.512.252.408.156.75.39 1.026.702.084-.06.216-.144.396-.252.18-.108.402-.21.666-.306.264-.108.558-.198.882-.27.324-.084.672-.126 1.044-.126.72 0 1.308.108 1.764.324.456.204.81.498 1.062.882.264.384.438.84.522 1.368.096.528.144 1.104.144 1.728V24h-1.674v-4.896c0-.552-.03-1.026-.09-1.422-.048-.396-.15-.726-.306-.99-.144-.264-.348-.456-.612-.576-.252-.132-.582-.198-.99-.198-.564 0-1.032.078-1.404.234-.36.144-.606.276-.738.396.096.312.168.654.216 1.026.048.372.072.762.072 1.17V24H794.8v-4.896c0-.552-.03-1.026-.09-1.422-.06-.396-.168-.726-.324-.99-.144-.264-.348-.456-.612-.576-.252-.132-.576-.198-.972-.198-.168 0-.348.006-.54.018-.192.012-.378.03-.558.054-.168.012-.324.03-.468.054-.144.024-.24.042-.288.054V24h-1.674v-9.09zm22.002 4.428c0-1.092-.27-1.932-.81-2.52-.54-.588-1.26-.882-2.16-.882-.504 0-.9.018-1.188.054-.276.036-.498.078-.666.126v5.904c.204.168.498.33.882.486.384.156.804.234 1.26.234.48 0 .888-.084 1.224-.252.348-.18.63-.42.846-.72.216-.312.372-.672.468-1.08.096-.42.144-.87.144-1.35zm1.746 0c0 .708-.096 1.362-.288 1.962-.18.6-.45 1.116-.81 1.548-.36.432-.804.768-1.332 1.008-.516.24-1.11.36-1.782.36-.54 0-1.02-.072-1.44-.216-.408-.144-.714-.282-.918-.414v3.744h-1.674V14.928c.396-.096.888-.198 1.476-.306.6-.12 1.29-.18 2.07-.18.72 0 1.368.114 1.944.342.576.228 1.068.552 1.476.972.408.42.72.936.936 1.548.228.6.342 1.278.342 2.034zm5.164 4.842c-1.032-.024-1.764-.246-2.196-.666-.432-.42-.648-1.074-.648-1.962V10.32l1.674-.288v11.25c0 .276.024.504.072.684.048.18.126.324.234.432.108.108.252.192.432.252.18.048.402.09.666.126l-.234 1.404zm1.591-4.842c0-.828.12-1.548.36-2.16.24-.624.558-1.14.954-1.548.396-.408.852-.714 1.368-.918.516-.204 1.044-.306 1.584-.306 1.26 0 2.226.396 2.898 1.188.672.78 1.008 1.974 1.008 3.582v.288c0 .108-.006.21-.018.306h-6.408c.072.972.354 1.71.846 2.214s1.26.756 2.304.756c.588 0 1.08-.048 1.476-.144.408-.108.714-.21.918-.306l.234 1.404c-.204.108-.564.222-1.08.342-.504.12-1.08.18-1.728.18-.816 0-1.524-.12-2.124-.36-.588-.252-1.074-.594-1.458-1.026-.384-.432-.672-.942-.864-1.53-.18-.6-.27-1.254-.27-1.962zm6.426-.918c.012-.756-.18-1.374-.576-1.854-.384-.492-.918-.738-1.602-.738-.384 0-.726.078-1.026.234-.288.144-.534.336-.738.576-.204.24-.366.516-.486.828-.108.312-.18.63-.216.954h4.644zm4.151-3.51c.384-.096.888-.198 1.512-.306.636-.108 1.368-.162 2.196-.162.6 0 1.104.084 1.512.252.408.156.75.39 1.026.702.084-.06.216-.144.396-.252.18-.108.402-.21.666-.306.264-.108.558-.198.882-.27.324-.084.672-.126 1.044-.126.72 0 1.308.108 1.764.324.456.204.81.498 1.062.882.264.384.438.84.522 1.368.096.528.144 1.104.144 1.728V24h-1.674v-4.896c0-.552-.03-1.026-.09-1.422-.048-.396-.15-.726-.306-.99-.144-.264-.348-.456-.612-.576-.252-.132-.582-.198-.99-.198-.564 0-1.032.078-1.404.234-.36.144-.606.276-.738.396.096.312.168.654.216 1.026.048.372.072.762.072 1.17V24h-1.674v-4.896c0-.552-.03-1.026-.09-1.422-.06-.396-.168-.726-.324-.99-.144-.264-.348-.456-.612-.576-.252-.132-.576-.198-.972-.198-.168 0-.348.006-.54.018-.192.012-.378.03-.558.054-.168.012-.324.03-.468.054-.144.024-.24.042-.288.054V24h-1.674v-9.09zm14.982 4.428c0-.828.12-1.548.36-2.16.24-.624.558-1.14.954-1.548.396-.408.852-.714 1.368-.918.516-.204 1.044-.306 1.584-.306 1.26 0 2.226.396 2.898 1.188.672.78 1.008 1.974 1.008 3.582v.288c0 .108-.006.21-.018.306h-6.408c.072.972.354 1.71.846 2.214s1.26.756 2.304.756c.588 0 1.08-.048 1.476-.144.408-.108.714-.21.918-.306l.234 1.404c-.204.108-.564.222-1.08.342-.504.12-1.08.18-1.728.18-.816 0-1.524-.12-2.124-.36-.588-.252-1.074-.594-1.458-1.026-.384-.432-.672-.942-.864-1.53-.18-.6-.27-1.254-.27-1.962zm6.426-.918c.012-.756-.18-1.374-.576-1.854-.384-.492-.918-.738-1.602-.738-.384 0-.726.078-1.026.234-.288.144-.534.336-.738.576-.204.24-.366.516-.486.828-.108.312-.18.63-.216.954h4.644zm4.151-3.51c.384-.096.894-.198 1.53-.306.636-.108 1.368-.162 2.196-.162.744 0 1.362.108 1.854.324.492.204.882.498 1.17.882.3.372.51.822.63 1.35.12.528.18 1.11.18 1.746V24h-1.674v-4.896c0-.576-.042-1.068-.126-1.476-.072-.408-.198-.738-.378-.99s-.42-.432-.72-.54c-.3-.12-.672-.18-1.116-.18-.18 0-.366.006-.558.018-.192.012-.378.03-.558.054-.168.012-.324.03-.468.054l-.288.054V24h-1.674v-9.09zm11.902-.27h3.546v1.404h-3.546v4.32c0 .468.036.858.108 1.17.072.3.18.54.324.72.144.168.324.288.54.36.216.072.468.108.756.108.504 0 .906-.054 1.206-.162.312-.12.528-.204.648-.252l.324 1.386c-.168.084-.462.186-.882.306-.42.132-.9.198-1.44.198-.636 0-1.164-.078-1.584-.234-.408-.168-.738-.414-.99-.738s-.432-.72-.54-1.188c-.096-.48-.144-1.032-.144-1.656V12.03l1.674-.288v2.898z"/>
    <path stroke="url(#prefix__paint0_linear)" stroke-linecap="square" stroke-width="5" d="M293 4.081L483.919 195 293 385.919"/>
    <path stroke="url(#prefix__paint1_linear)" stroke-dasharray="8 8" stroke-linecap="square" stroke-width="5" d="M293 4.081L102.081 195 293 385.919"/>
    <path stroke="url(#prefix__paint2_linear)" stroke-linecap="square" stroke-width="5" d="M674.919 4L865.838 194.92 674.919 385.838"/>
    <path stroke="url(#prefix__paint3_linear)" stroke-dasharray="8 8" stroke-linecap="square" stroke-width="5" d="M674.919 4L484 194.92l190.919 190.919"/>
    <circle cx="102" cy="195" r="16" fill="url(#prefix__paint4_linear)"/>
    <circle cx="484" cy="195" r="16" fill="url(#prefix__paint5_linear)"/>
    <circle cx="866" cy="195" r="16" fill="url(#prefix__paint6_linear)"/>
    <defs>
        <linearGradient id="prefix__paint0_linear" x1="197.541" x2="388.459" y1="99.541" y2="290.459" gradientUnits="userSpaceOnUse">
            <stop stop-color="#E34141"/>
            <stop offset="1" stop-color="#F49B48"/>
        </linearGradient>
        <linearGradient id="prefix__paint1_linear" x1="197.541" x2="388.459" y1="99.541" y2="290.459" gradientUnits="userSpaceOnUse">
            <stop stop-color="#E34141"/>
            <stop offset="1" stop-color="#F49B48"/>
        </linearGradient>
        <linearGradient id="prefix__paint2_linear" x1="579.459" x2="770.378" y1="99.46" y2="290.378" gradientUnits="userSpaceOnUse">
            <stop stop-color="#E34141"/>
            <stop offset="1" stop-color="#F49B48"/>
        </linearGradient>
        <linearGradient id="prefix__paint3_linear" x1="579.459" x2="770.378" y1="99.46" y2="290.378" gradientUnits="userSpaceOnUse">
            <stop stop-color="#E34141"/>
            <stop offset="1" stop-color="#F49B48"/>
        </linearGradient>
        <linearGradient id="prefix__paint4_linear" x1="102" x2="102" y1="179" y2="211" gradientUnits="userSpaceOnUse">
            <stop stop-color="#E34141"/>
            <stop offset="1" stop-color="#F49B48"/>
        </linearGradient>
        <linearGradient id="prefix__paint5_linear" x1="484" x2="484" y1="179" y2="211" gradientUnits="userSpaceOnUse">
            <stop stop-color="#E34141"/>
            <stop offset="1" stop-color="#F49B48"/>
        </linearGradient>
        <linearGradient id="prefix__paint6_linear" x1="866" x2="866" y1="179" y2="211" gradientUnits="userSpaceOnUse">
            <stop stop-color="#E34141"/>
            <stop offset="1" stop-color="#F49B48"/>
        </linearGradient>
    </defs>
</svg>
