<svg width="32" height="32" viewBox="0 0 32 32" fill="none" xmlns="http://www.w3.org/2000/svg">
<path d="M5.33333 4H26.6667C27.0203 4 27.3594 4.14048 27.6095 4.39052C27.8595 4.64057 28 4.97971 28 5.33333V26.6667C28 27.0203 27.8595 27.3594 27.6095 27.6095C27.3594 27.8595 27.0203 28 26.6667 28H5.33333C4.97971 28 4.64057 27.8595 4.39052 27.6095C4.14048 27.3594 4 27.0203 4 26.6667V5.33333C4 4.97971 4.14048 4.64057 4.39052 4.39052C4.64057 4.14048 4.97971 4 5.33333 4ZM6.66667 6.66667V25.3333H25.3333V6.66667H6.66667ZM10 12C9.46957 12 8.96086 11.7893 8.58579 11.4142C8.21071 11.0391 8 10.5304 8 10C8 9.46957 8.21071 8.96086 8.58579 8.58579C8.96086 8.21071 9.46957 8 10 8C10.5304 8 11.0391 8.21071 11.4142 8.58579C11.7893 8.96086 12 9.46957 12 10C12 10.5304 11.7893 11.0391 11.4142 11.4142C11.0391 11.7893 10.5304 12 10 12ZM8.66667 13.3333H11.3333V23.3333H8.66667V13.3333ZM16 13.9067C16.7787 13.1533 17.688 12.6667 18.6667 12.6667C21.428 12.6667 23.3333 14.9053 23.3333 17.6667V23.3333H20.6667V17.6667C20.6667 17.0478 20.4208 16.4543 19.9832 16.0168C19.5457 15.5792 18.9522 15.3333 18.3333 15.3333C17.7145 15.3333 17.121 15.5792 16.6834 16.0168C16.2458 16.4543 16 17.0478 16 17.6667V23.3333H13.3333V13.3333H16V13.9067Z" fill="white"/>
</svg>
