<svg xmlns="http://www.w3.org/2000/svg" width="180" height="48" fill="none" viewBox="0 0 180 48">
    <path fill="url(#prefix__paint0_linear)" fill-rule="evenodd" d="M3 14v7.25H0V14h3zm0 12.75V34H0v-7.25h3z" clip-rule="evenodd"/>
    <path fill="url(#prefix__paint1_linear)" fill-rule="evenodd" d="M19 0v6.75h-3V0h3zm0 11.25v10.5h-3v-10.5h3zm0 15v10.5h-3v-10.5h3zm0 15V48h-3v-6.75h3z" clip-rule="evenodd"/>
    <path fill="url(#prefix__paint2_linear)" fill-rule="evenodd" d="M11 8v6.625H8V8h3zm0 10.875v10.25H8v-10.25h3zm0 14.5V40H8v-6.625h3z" clip-rule="evenodd"/>
    <path fill="#0F1013" d="M40.84 34.72c1.093 0 1.867-.107 2.32-.32.453-.213.68-.627.68-1.24 0-.48-.293-.893-.88-1.24-.587-.373-1.48-.787-2.68-1.24-.933-.347-1.787-.707-2.56-1.08-.747-.373-1.387-.813-1.92-1.32-.533-.533-.947-1.16-1.24-1.88-.293-.72-.44-1.587-.44-2.6 0-1.973.733-3.533 2.2-4.68 1.467-1.147 3.48-1.72 6.04-1.72 1.28 0 2.507.12 3.68.36 1.173.213 2.107.453 2.8.72l-1.04 4.64c-.693-.24-1.453-.453-2.28-.64-.8-.187-1.707-.28-2.72-.28-1.867 0-2.8.52-2.8 1.56 0 .24.04.453.12.64.08.187.24.373.48.56.24.16.56.347.96.56.427.187.96.4 1.6.64 1.307.48 2.387.96 3.24 1.44.853.453 1.52.96 2 1.52.507.533.853 1.133 1.04 1.8.213.667.32 1.44.32 2.32 0 2.08-.787 3.653-2.36 4.72-1.547 1.067-3.747 1.6-6.6 1.6-1.867 0-3.427-.16-4.68-.48-1.227-.32-2.08-.587-2.56-.8l1-4.84c1.013.4 2.053.72 3.12.96 1.067.213 2.12.32 3.16.32zM60.174 39h-5.96V17.96h5.96V39zm.56-27.12c0 1.093-.36 1.96-1.08 2.6-.693.613-1.52.92-2.48.92s-1.8-.307-2.52-.92c-.693-.64-1.04-1.507-1.04-2.6 0-1.093.347-1.947 1.04-2.56.72-.64 1.56-.96 2.52-.96s1.787.32 2.48.96c.72.613 1.08 1.467 1.08 2.56zM77.337 27.84c0-1.92-.254-3.28-.76-4.08-.48-.8-1.32-1.2-2.52-1.2-.374 0-.76.027-1.16.08-.4.027-.787.067-1.16.12V39h-5.96V18.68c.506-.133 1.093-.267 1.76-.4.693-.16 1.413-.293 2.16-.4.773-.133 1.56-.227 2.36-.28.8-.08 1.586-.12 2.36-.12 1.52 0 2.746.2 3.68.6.96.373 1.746.827 2.36 1.36.853-.613 1.826-1.093 2.92-1.44 1.12-.347 2.146-.52 3.08-.52 1.68 0 3.053.24 4.12.72 1.093.453 1.96 1.107 2.6 1.96.64.853 1.08 1.867 1.32 3.04s.36 2.48.36 3.92V39h-5.96V27.84c0-1.92-.254-3.28-.76-4.08-.48-.8-1.32-1.2-2.52-1.2-.32 0-.774.08-1.36.24-.56.16-1.027.36-1.4.6.186.613.306 1.267.36 1.96.053.667.08 1.387.08 2.16V39h-5.96V27.84zM113.749 28.64c0-1.84-.414-3.307-1.24-4.4-.827-1.12-2.054-1.68-3.68-1.68-.534 0-1.027.027-1.48.08-.454.027-.827.067-1.12.12v10.76c.373.24.853.44 1.44.6.613.16 1.226.24 1.84.24 2.826 0 4.24-1.907 4.24-5.72zm6.08-.16c0 1.627-.2 3.107-.6 4.44-.4 1.333-.987 2.48-1.76 3.44-.774.96-1.734 1.707-2.88 2.24-1.147.533-2.467.8-3.96.8-.827 0-1.6-.08-2.32-.24-.72-.16-1.414-.387-2.08-.68v7.92h-5.96V18.68c.533-.16 1.146-.307 1.84-.44.693-.16 1.413-.293 2.16-.4.773-.107 1.546-.187 2.32-.24.8-.08 1.56-.12 2.28-.12 1.733 0 3.28.267 4.64.8 1.36.507 2.506 1.24 3.44 2.2.933.933 1.64 2.08 2.12 3.44.506 1.36.76 2.88.76 4.56zM132.809 39.4c-1.733-.027-3.146-.213-4.24-.56-1.066-.347-1.92-.827-2.56-1.44-.613-.64-1.04-1.4-1.28-2.28-.213-.907-.32-1.92-.32-3.04V8.92l5.96-.96v22.92c0 .533.04 1.013.12 1.44.08.427.227.787.44 1.08.24.293.574.533 1 .72.427.187 1 .307 1.72.36l-.84 4.92zM155.026 38.28c-1.014.293-2.32.56-3.92.8-1.6.267-3.28.4-5.04.4-1.787 0-3.28-.24-4.48-.72-1.174-.48-2.107-1.147-2.8-2-.694-.88-1.187-1.92-1.48-3.12-.294-1.2-.44-2.52-.44-3.96V17.96h5.96v11c0 1.92.253 3.307.76 4.16.506.853 1.453 1.28 2.84 1.28.426 0 .88-.013 1.36-.04.48-.053.906-.107 1.28-.16V17.96h5.96v20.32zM168.98 24.36l4.16-6.4h6.16l-7.2 10.12c1.6 2 3.054 3.947 4.36 5.84 1.307 1.893 2.347 3.587 3.12 5.08h-6.4c-.213-.4-.48-.893-.8-1.48-.32-.613-.68-1.24-1.08-1.88-.4-.667-.826-1.32-1.28-1.96-.426-.667-.853-1.267-1.28-1.8-.4.507-.813 1.067-1.24 1.68-.4.613-.786 1.24-1.16 1.88l-1.12 1.84c-.346.613-.653 1.187-.92 1.72h-6.08c.32-.667.76-1.453 1.32-2.36.56-.907 1.16-1.84 1.8-2.8.667-.987 1.36-1.96 2.08-2.92.72-.987 1.427-1.907 2.12-2.76-1.2-1.68-2.4-3.373-3.6-5.08-1.2-1.733-2.386-3.44-3.56-5.12h6.44l4.16 6.4z"/>
    <defs>
        <linearGradient id="prefix__paint0_linear" x1="3" x2="0" y1="24" y2="24" gradientUnits="userSpaceOnUse">
            <stop stop-color="#E34141"/>
            <stop offset="1" stop-color="#F49B48"/>
        </linearGradient>
        <linearGradient id="prefix__paint1_linear" x1="19" x2="16" y1="24" y2="24" gradientUnits="userSpaceOnUse">
            <stop stop-color="#E34141"/>
            <stop offset="1" stop-color="#F49B48"/>
        </linearGradient>
        <linearGradient id="prefix__paint2_linear" x1="11" x2="8" y1="24" y2="24" gradientUnits="userSpaceOnUse">
            <stop stop-color="#E34141"/>
            <stop offset="1" stop-color="#F49B48"/>
        </linearGradient>
    </defs>
</svg>
